<?xml version="1.0" encoding="utf-8"?>
<!-- Generator: Adobe Illustrator 23.0.1, SVG Export Plug-In . SVG Version: 6.00 Build 0)  -->
<svg version="1.1" id="Layer_1" xmlns="http://www.w3.org/2000/svg" xmlns:xlink="http://www.w3.org/1999/xlink" x="0px" y="0px"
	 viewBox="0 0 512 512" style="enable-background:new 0 0 512 512;" xml:space="preserve">
<style type="text/css">
	.st0{fill:#FFFFFF;}
</style>
<g>
	<g>
		<path class="st0" d="M401.1,277.3c-23.5,0-42.7,19.1-42.7,42.7s19.1,42.7,42.7,42.7s42.7-19.1,42.7-42.7
			C443.7,296.5,424.6,277.3,401.1,277.3z M401.1,345.6c-14.1,0-25.6-11.5-25.6-25.6s11.5-25.6,25.6-25.6s25.6,11.5,25.6,25.6
			S415.2,345.6,401.1,345.6z"/>
	</g>
</g>
<g>
	<g>
		<path class="st0" d="M128,277.3c-23.5,0-42.7,19.1-42.7,42.7s19.1,42.7,42.7,42.7s42.7-19.1,42.7-42.7
			C170.7,296.5,151.6,277.3,128,277.3z M128,345.6c-14.1,0-25.6-11.5-25.6-25.6s11.5-25.6,25.6-25.6s25.6,11.5,25.6,25.6
			S142.2,345.6,128,345.6z"/>
	</g>
</g>
<g>
	<g>
		<path class="st0" d="M503.5,268.8v-42.7c0-3-1.6-5.9-4.3-7.4c-35.3-20.4-77.9-26.7-123.5-18.4l-66.5-16.6
			c-4.4-1.1-8.8,1.4-10.2,5.6l-7.1,21.2c-29.3,6.9-56.6,5.3-73.9,2.8l34.1-22.7c2.1-1.4,3.5-3.7,3.8-6.3c0.2-2.5-0.6-5.1-2.5-6.9
			l-25.6-25.6c-2.9-2.9-7.4-3.3-10.8-1.1l-74.5,49.7c-78.9-2.8-116.8,33.1-132.8,55.2c-0.9,1.5-22.4,35.9,0.9,61.5
			c1.2,1.3,2.8,2.3,4.6,2.6l42.7,8.5c0.6,0.1,1.1,0.2,1.7,0.2c2,0,3.9-0.7,5.4-1.9c2-1.6,3.1-4,3.1-6.6c0-32.9,26.8-59.7,59.7-59.7
			s59.7,26.8,59.7,59.7c0,4.7,3.8,8.5,8.5,8.5h136.5c4.7,0,8.5-3.8,8.5-8.5c0-32.9,26.8-59.7,59.7-59.7s59.7,26.8,59.7,59.7
			c0,4.7,3.8,8.5,8.5,8.5H503c4.7,0,8.5-3.8,8.5-8.5v-42.7C512,272.6,508.2,268.8,503.5,268.8z M495,311.5L495,311.5h-17.6
			c-4.3-38.3-36.9-68.3-76.3-68.3s-72.1,29.9-76.3,68.3H204.4c-4.3-38.3-36.9-68.3-76.3-68.3c-38.9,0-71.1,29-76.1,66.5l-30.2-6
			c-11.6-15.8,2.3-38.4,2.3-38.4c1.1-1.6,2.4-3.3,3.9-5h14.8c4.7,0,8.5-3.8,8.5-8.5c0-3.8-2.6-7-6-8c19.6-14.9,50.8-28.4,99.5-26.1
			c1.8,0,3.6-0.4,5.1-1.4l71-47.3l13.3,13.3l-42.5,28.4c-2.7,1.8-4.2,5.1-3.7,8.4c0.5,3.3,2.8,6,6,6.9c2,0.6,51,14.9,107,0.1
			c2.8-0.7,5-2.8,5.9-5.5l6-18.1l60.6,15.1c1.2,0.3,2.5,0.3,3.7,0.1c28.4-5.4,69.9-7.3,109.3,13.7v12H478c-4.7,0-8.5,3.8-8.5,8.5
			s3.8,8.5,8.5,8.5h8.5v17.1c0,4.7,3.8,8.5,8.5,8.5V311.5z"/>
	</g>
</g>
</svg>
