<?xml version="1.0" encoding="utf-8"?>
<!-- Generator: Adobe Illustrator 23.0.1, SVG Export Plug-In . SVG Version: 6.00 Build 0)  -->
<svg version="1.1" id="Capa_1" xmlns="http://www.w3.org/2000/svg" xmlns:xlink="http://www.w3.org/1999/xlink" x="0px" y="0px"
	 viewBox="0 0 423.1 423.1" style="enable-background:new 0 0 423.1 423.1;" xml:space="preserve">
<style type="text/css">
	.st0{fill:#FFFFFF;}
</style>
<g>
	<path class="st0" d="M323.8,189.2c0-19.3-15.7-35.1-35.1-35.1s-35.1,15.7-35.1,35.1s15.7,35.1,35.1,35.1S323.8,208.5,323.8,189.2z
		 M268.7,189.2c0-11.1,9-20.1,20.1-20.1s20.1,9,20.1,20.1s-9,20.1-20.1,20.1S268.7,200.2,268.7,189.2z"/>
	<path class="st0" d="M387.8,0H72.4c-2.3,0-4.6,0.2-6.8,0.5C44.3,3.8,27.8,22.3,27.8,44.6v333.9c0,24.6,20,44.6,44.6,44.6H145
		c10.1,0,19.4-3.4,26.9-9c0.3-0.2,0.6-0.5,0.9-0.7c6.2-4.9,11-11.5,13.9-19h201.2c4.1,0,7.5-3.4,7.5-7.5V7.5
		C395.3,3.4,392,0,387.8,0z M77.6,74.2c1-6.1,3.8-11.6,8.3-16c5.6-5.6,13-8.7,20.9-8.7h67.3c-2.3,14-14.5,24.7-29.2,24.7H77.6z
		 M72.4,15H145c1.5,0,3,0.1,4.5,0.3c10.8,1.7,19.7,9.2,23.3,19.2h-66c-11.9,0-23.1,4.6-31.5,13.1c-6.9,6.9-11.2,15.6-12.6,25
		c-11.5-4-19.8-15-19.8-27.9C42.8,28.3,56.1,15,72.4,15z M42.8,77.9c7.9,7,18.3,11.3,29.6,11.3h14.7l65.8,65.8L42.8,265.1V77.9z
		 M174.6,378.5c0,7.1-2.5,13.7-6.7,18.8L100.5,330c-2.9-2.9-7.7-2.9-10.6,0c-2.9,2.9-2.9,7.7,0,10.6l65.6,65.6
		c-3.3,1.3-6.8,1.9-10.5,1.9H72.4c-16.3,0-29.6-13.3-29.6-29.6v-85l19.1,19.1c1.5,1.5,3.4,2.2,5.3,2.2s3.8-0.7,5.3-2.2
		c2.9-2.9,2.9-7.7,0-10.6l-22.7-22.7l33.9-33.9l90.9,90.9L174.6,378.5L174.6,378.5z M174.6,268c0,0.1,0,0.1,0,0.2v46.8l-80.2-80.2
		l69.2-69.2l11,11L174.6,268L174.6,268z M174.6,155.4l-66.2-66.2h36.6c11.4,0,21.7-4.3,29.6-11.3V155.4z M178.3,15h84.9l-73.7,73.7
		V44.6C189.6,33.3,185.3,22.9,178.3,15z M243.2,222.3c-16.4-22.6-14-53.3,5.7-73c11-11,25.4-16.5,39.9-16.5s28.9,5.5,39.9,16.5
		c19.7,19.7,22.1,50.4,5.7,73L288.8,285L243.2,222.3z M265,277.9l-75.5,75.5v-82.1l40.9-40.9c0.2,0.3,0.4,0.5,0.6,0.8L265,277.9z
		 M238.3,138.7c-12,12-19.4,27.9-20.7,44.9c-0.9,11.4,1,22.7,5.3,33.1L189.6,250V109.9l12-12l38.8,38.8
		C239.7,137.4,239,138,238.3,138.7z M189.6,379.4v-4.8l84.4-84.4l8.7,12c1.4,1.9,3.7,3.1,6.1,3.1s4.7-1.1,6.1-3.1l6.9-9.5l52.2,52.2
		l-34.4,34.4H189.6z M380.3,379.4h-39.6l23.8-23.8l15.7,15.7V379.4z M380.3,350l-69.6-69.6l30.9-42.5l38.8,38.8V350z M380.3,255.4
		l-30.1-30.1c7.4-12.6,10.8-27.2,9.7-41.8c-1.3-16.9-8.7-32.9-20.7-44.9c-2.1-2.1-4.3-4-6.5-5.8l47.6-47.6V255.4z M380.3,64.1
		l-60.7,60.7c-21.3-10.2-46.6-9.2-67.1,2.8l-40.4-40.4L284.4,15h95.9V64.1z"/>
	<path class="st0" d="M79.5,313.7c-1.4,0.3-2.8,1-3.8,2c-2.9,2.8-2.9,7.8,0,10.6c2.9,2.9,7.7,2.9,10.6,0c2.9-2.8,2.9-7.8,0-10.6
		C84.5,314,81.9,313.2,79.5,313.7C79,313.8,80.5,313.5,79.5,313.7z"/>
</g>
</svg>
