<?xml version="1.0" encoding="utf-8"?>
<!-- Generator: Adobe Illustrator 23.0.1, SVG Export Plug-In . SVG Version: 6.00 Build 0)  -->
<svg version="1.1" id="Layer_1" xmlns="http://www.w3.org/2000/svg" xmlns:xlink="http://www.w3.org/1999/xlink" x="0px" y="0px"
	 viewBox="0 0 512 512" style="enable-background:new 0 0 512 512;" xml:space="preserve">
<style type="text/css">
	.st0{fill:#FFFFFF;}
</style>
<g>
	<g>
		<path class="st0" d="M512,222.5c0-2.6-1-5.1-2.9-7L413,117.4c-1.9-2-4.5-3.1-7.3-3.1H10.2c-5.6,0-10.2,4.6-10.2,10.2v228.6
			c0,5.6,4.6,10.2,10.2,10.2h26.4c4.6,19.7,22.3,34.4,43.4,34.4s38.8-14.7,43.4-34.4H332c4.6,19.7,22.3,34.4,43.4,34.4
			s38.8-14.7,43.4-34.4h83c5.6,0,10.2-4.6,10.2-10.2V222.6C512,222.6,512,222.5,512,222.5z M354.2,134.7h47.2l76.1,77.7H354.2V134.7
			z M80,377.3c-13.3,0-24.2-10.9-24.2-24.2s10.9-24.2,24.2-24.2c13.3,0,24.2,10.9,24.2,24.2S93.3,377.3,80,377.3z M298.4,342.9h-175
			c-4.6-19.7-22.3-34.4-43.4-34.4s-38.8,14.7-43.4,34.4H20.4v-68.6h278V342.9z M298.4,253.9h-278V134.7h278V253.9z M375.4,377.3
			c-13.3,0-24.2-10.9-24.2-24.2s10.9-24.2,24.2-24.2s24.2,10.9,24.2,24.2S388.7,377.3,375.4,377.3z M491.6,253.9H435
			c-5.6,0-10.2,4.6-10.2,10.2s4.6,10.2,10.2,10.2h56.6v68.6h-72.8c-4.6-19.7-22.3-34.4-43.4-34.4s-38.8,14.7-43.4,34.4h-13.2V134.7
			h15v87.9c0,5.6,4.6,10.2,10.2,10.2h147.6V253.9z"/>
	</g>
</g>
<g>
	<g>
		<path class="st0" d="M396.3,253.9h-12c-5.6,0-10.2,4.6-10.2,10.2s4.6,10.2,10.2,10.2h12c5.6,0,10.2-4.6,10.2-10.2
			C406.5,258.5,401.9,253.9,396.3,253.9z"/>
	</g>
</g>
</svg>
